# xmcd
#
# Track frame offsets:
#	150
#	13630
#	29435
#	40935
#	54217
#	70190
#	85832
#	103985
#	123100
#	139040
#	154210
#	171400
#	189852
#	199785
#	218037
#	233807
#	254610
#	269512
#	286892
#	300947
#
# Disc length: 4123 seconds
#
# Revision: 1
# Processed by: cddbd v1.5PL3 Copyright (c) Steve Scherf et al.
# Submitted via: CDex 1.50Beta5
#
DISCID=16101914
DTITLE=さまざまなアーティスト - 叙情歌 11 四季の歌
DYEAR=1900
DGENRE=Other
TTITLE0=芹 洋子/四季の歌
TTITLE1=倍賞千恵子/忘れな草をあなたに
TTITLE2=ダーク・ダックス/銀色の道
TTITLE3=ボニージャックス/風はそよ風
TTITLE4=島田祐子/森の水車
TTITLE5=ダーク・ダックス/花のメルヘン
TTITLE6=高 英男/雪の降る町を
TTITLE7=ペギー葉山/南国土佐を後にして
TTITLE8=ダーク・ダックス/白銀は招くよ
TTITLE9=ペギー葉山/学生時代
TTITLE10=江利チエミ/新妻に捧げる歌
TTITLE11=芹 洋子/夜明けの歌
TTITLE12=ペギー葉山/爪
TTITLE13=さとう宗幸/青葉城恋歌
TTITLE14=ビリー・バンバン/白いブランコ
TTITLE15=芹 洋子/希望
TTITLE16=さとう宗幸/岩尾別旅情
TTITLE17=芹 洋子/坊がつる賛歌
TTITLE18=土居裕子/村の娘
TTITLE19=ボニージャックス/春爛漫の花の色
EXTD=
EXTT0=
EXTT1=
EXTT2=
EXTT3=
EXTT4=
EXTT5=
EXTT6=
EXTT7=
EXTT8=
EXTT9=
EXTT10=
EXTT11=
EXTT12=
EXTT13=
EXTT14=
EXTT15=
EXTT16=
EXTT17=
EXTT18=
EXTT19=
PLAYORDER=
